<svg id="Calque_1" data-name="Calque 1" xmlns="http://www.w3.org/2000/svg" viewBox="0 0 453.1 4975.41"><defs><style>.cls-1{fill:none;}.cls-2{fill:#1d1d1b;}</style></defs><title>FLECHE</title><path d="M918.88,312.64,716.21,110a10.67,10.67,0,0,0-15.08,0L498.46,312.64a55.92,55.92,0,0,0,79.09,79.08l77.78-77.78v4715a53.33,53.33,0,1,0,106.66,0v-4715l77.78,77.78a55.93,55.93,0,0,0,79.11-79.08Z" transform="translate(-482.11 -106.85)"/><rect class="cls-1" x="41.78" y="465.96" width="73.91" height="74.99"/><rect class="cls-2" x="96.51" y="500.8" width="13.72" height="7.5"/><rect class="cls-2" x="71.9" y="500.8" width="13.72" height="7.5"/><rect class="cls-2" x="47.38" y="500.8" width="13.72" height="7.5"/><rect class="cls-1" x="115.69" y="465.96" width="73.91" height="74.99"/><rect class="cls-2" x="170.42" y="500.8" width="13.72" height="7.5"/><rect class="cls-2" x="145.81" y="500.8" width="13.72" height="7.5"/><rect class="cls-2" x="121.29" y="500.8" width="13.72" height="7.5"/><rect class="cls-1" x="189.6" y="465.96" width="73.91" height="74.99"/><rect class="cls-2" x="244.33" y="500.8" width="13.72" height="7.5"/><rect class="cls-2" x="219.72" y="500.8" width="13.72" height="7.5"/><rect class="cls-2" x="195.2" y="500.8" width="13.72" height="7.5"/><rect class="cls-1" x="263.5" y="465.96" width="73.91" height="74.99"/><rect class="cls-2" x="318.23" y="500.8" width="13.72" height="7.5"/><rect class="cls-2" x="293.63" y="500.8" width="13.72" height="7.5"/><rect class="cls-2" x="269.1" y="500.8" width="13.72" height="7.5"/><rect class="cls-1" x="337.41" y="465.96" width="73.91" height="74.99"/><rect class="cls-2" x="392.14" y="500.8" width="13.72" height="7.5"/><rect class="cls-2" x="367.54" y="500.8" width="13.72" height="7.5"/><rect class="cls-2" x="343.01" y="500.8" width="13.72" height="7.5"/><rect class="cls-1" x="41.78" y="1032.89" width="73.91" height="74.99"/><rect class="cls-2" x="96.51" y="1067.73" width="13.72" height="7.5"/><rect class="cls-2" x="71.9" y="1067.73" width="13.72" height="7.5"/><rect class="cls-2" x="47.38" y="1067.73" width="13.72" height="7.5"/><rect class="cls-1" x="115.69" y="1032.89" width="73.91" height="74.99"/><rect class="cls-2" x="170.42" y="1067.73" width="13.72" height="7.5"/><rect class="cls-2" x="145.81" y="1067.73" width="13.72" height="7.5"/><rect class="cls-2" x="121.29" y="1067.73" width="13.72" height="7.5"/><rect class="cls-1" x="189.6" y="1032.89" width="73.91" height="74.99"/><rect class="cls-2" x="244.33" y="1067.73" width="13.72" height="7.5"/><rect class="cls-2" x="219.72" y="1067.73" width="13.72" height="7.5"/><rect class="cls-2" x="195.2" y="1067.73" width="13.72" height="7.5"/><rect class="cls-1" x="263.5" y="1032.89" width="73.91" height="74.99"/><rect class="cls-2" x="318.23" y="1067.73" width="13.72" height="7.5"/><rect class="cls-2" x="293.63" y="1067.73" width="13.72" height="7.5"/><rect class="cls-2" x="269.1" y="1067.73" width="13.72" height="7.5"/><rect class="cls-1" x="337.41" y="1032.89" width="73.91" height="74.99"/><rect class="cls-2" x="392.14" y="1067.73" width="13.72" height="7.5"/><rect class="cls-2" x="367.54" y="1067.73" width="13.72" height="7.5"/><rect class="cls-2" x="343.01" y="1067.73" width="13.72" height="7.5"/><rect class="cls-1" x="41.78" y="1599.82" width="73.91" height="74.99"/><rect class="cls-2" x="96.51" y="1634.66" width="13.72" height="7.5"/><rect class="cls-2" x="71.9" y="1634.66" width="13.72" height="7.5"/><rect class="cls-2" x="47.38" y="1634.66" width="13.72" height="7.5"/><rect class="cls-1" x="115.69" y="1599.82" width="73.91" height="74.99"/><rect class="cls-2" x="170.42" y="1634.66" width="13.72" height="7.5"/><rect class="cls-2" x="145.81" y="1634.66" width="13.72" height="7.5"/><rect class="cls-2" x="121.29" y="1634.66" width="13.72" height="7.5"/><rect class="cls-1" x="189.6" y="1599.82" width="73.91" height="74.99"/><rect class="cls-2" x="244.33" y="1634.66" width="13.72" height="7.5"/><rect class="cls-2" x="219.72" y="1634.66" width="13.72" height="7.5"/><rect class="cls-2" x="195.2" y="1634.66" width="13.72" height="7.5"/><rect class="cls-1" x="263.5" y="1599.82" width="73.91" height="74.99"/><rect class="cls-2" x="318.23" y="1634.66" width="13.72" height="7.5"/><rect class="cls-2" x="293.63" y="1634.66" width="13.72" height="7.5"/><rect class="cls-2" x="269.1" y="1634.66" width="13.72" height="7.5"/><rect class="cls-1" x="337.41" y="1599.82" width="73.91" height="74.99"/><rect class="cls-2" x="392.14" y="1634.66" width="13.72" height="7.5"/><rect class="cls-2" x="367.54" y="1634.66" width="13.72" height="7.5"/><rect class="cls-2" x="343.01" y="1634.66" width="13.72" height="7.5"/><rect class="cls-1" x="41.78" y="1032.89" width="73.91" height="74.99"/><rect class="cls-2" x="96.51" y="1067.73" width="13.72" height="7.5"/><rect class="cls-2" x="71.9" y="1067.73" width="13.72" height="7.5"/><rect class="cls-2" x="47.38" y="1067.73" width="13.72" height="7.5"/><rect class="cls-1" x="115.69" y="1032.89" width="73.91" height="74.99"/><rect class="cls-2" x="170.42" y="1067.73" width="13.72" height="7.5"/><rect class="cls-2" x="145.81" y="1067.73" width="13.72" height="7.5"/><rect class="cls-2" x="121.29" y="1067.73" width="13.72" height="7.5"/><rect class="cls-1" x="189.6" y="1032.89" width="73.91" height="74.99"/><rect class="cls-2" x="244.33" y="1067.73" width="13.72" height="7.5"/><rect class="cls-2" x="219.72" y="1067.73" width="13.72" height="7.5"/><rect class="cls-2" x="195.2" y="1067.73" width="13.72" height="7.5"/><rect class="cls-1" x="263.5" y="1032.89" width="73.91" height="74.99"/><rect class="cls-2" x="318.23" y="1067.73" width="13.72" height="7.5"/><rect class="cls-2" x="293.63" y="1067.73" width="13.72" height="7.5"/><rect class="cls-2" x="269.1" y="1067.73" width="13.72" height="7.5"/><rect class="cls-1" x="337.41" y="1032.89" width="73.91" height="74.99"/><rect class="cls-2" x="392.14" y="1067.73" width="13.72" height="7.5"/><rect class="cls-2" x="367.54" y="1067.73" width="13.72" height="7.5"/><rect class="cls-2" x="343.01" y="1067.73" width="13.72" height="7.5"/><rect class="cls-1" x="41.78" y="2166.75" width="73.91" height="74.99"/><rect class="cls-2" x="96.51" y="2201.59" width="13.72" height="7.5"/><rect class="cls-2" x="71.9" y="2201.59" width="13.72" height="7.5"/><rect class="cls-2" x="47.38" y="2201.59" width="13.72" height="7.5"/><rect class="cls-1" x="115.69" y="2166.75" width="73.91" height="74.99"/><rect class="cls-2" x="170.42" y="2201.59" width="13.72" height="7.5"/><rect class="cls-2" x="145.81" y="2201.59" width="13.72" height="7.5"/><rect class="cls-2" x="121.29" y="2201.59" width="13.72" height="7.5"/><rect class="cls-1" x="189.6" y="2166.75" width="73.91" height="74.99"/><rect class="cls-2" x="244.33" y="2201.59" width="13.72" height="7.5"/><rect class="cls-2" x="219.72" y="2201.59" width="13.72" height="7.5"/><rect class="cls-2" x="195.2" y="2201.59" width="13.72" height="7.5"/><rect class="cls-1" x="263.5" y="2166.75" width="73.91" height="74.99"/><rect class="cls-2" x="318.23" y="2201.59" width="13.72" height="7.5"/><rect class="cls-2" x="293.63" y="2201.59" width="13.72" height="7.5"/><rect class="cls-2" x="269.1" y="2201.59" width="13.72" height="7.5"/><rect class="cls-1" x="337.41" y="2166.75" width="73.91" height="74.99"/><rect class="cls-2" x="392.14" y="2201.59" width="13.72" height="7.5"/><rect class="cls-2" x="367.54" y="2201.59" width="13.72" height="7.5"/><rect class="cls-2" x="343.01" y="2201.59" width="13.72" height="7.5"/><rect class="cls-1" x="41.78" y="2733.68" width="73.91" height="74.99"/><rect class="cls-2" x="96.51" y="2768.52" width="13.72" height="7.5"/><rect class="cls-2" x="71.9" y="2768.52" width="13.72" height="7.5"/><rect class="cls-2" x="47.38" y="2768.52" width="13.72" height="7.5"/><rect class="cls-1" x="115.69" y="2733.68" width="73.91" height="74.99"/><rect class="cls-2" x="170.42" y="2768.52" width="13.72" height="7.5"/><rect class="cls-2" x="145.81" y="2768.52" width="13.72" height="7.5"/><rect class="cls-2" x="121.29" y="2768.52" width="13.72" height="7.5"/><rect class="cls-1" x="189.6" y="2733.68" width="73.91" height="74.99"/><rect class="cls-2" x="244.33" y="2768.52" width="13.72" height="7.5"/><rect class="cls-2" x="219.72" y="2768.52" width="13.72" height="7.5"/><rect class="cls-2" x="195.2" y="2768.52" width="13.72" height="7.5"/><rect class="cls-1" x="263.5" y="2733.68" width="73.91" height="74.99"/><rect class="cls-2" x="318.23" y="2768.52" width="13.72" height="7.5"/><rect class="cls-2" x="293.63" y="2768.52" width="13.72" height="7.5"/><rect class="cls-2" x="269.1" y="2768.52" width="13.72" height="7.5"/><rect class="cls-1" x="337.41" y="2733.68" width="73.91" height="74.99"/><rect class="cls-2" x="392.14" y="2768.52" width="13.72" height="7.5"/><rect class="cls-2" x="367.54" y="2768.52" width="13.72" height="7.5"/><rect class="cls-2" x="343.01" y="2768.52" width="13.72" height="7.5"/><rect class="cls-1" x="41.78" y="3300.6" width="73.91" height="74.99"/><rect class="cls-2" x="96.51" y="3335.45" width="13.72" height="7.5"/><rect class="cls-2" x="71.9" y="3335.45" width="13.72" height="7.5"/><rect class="cls-2" x="47.38" y="3335.45" width="13.72" height="7.5"/><rect class="cls-1" x="115.69" y="3300.6" width="73.91" height="74.99"/><rect class="cls-2" x="170.42" y="3335.45" width="13.72" height="7.5"/><rect class="cls-2" x="145.81" y="3335.45" width="13.72" height="7.5"/><rect class="cls-2" x="121.29" y="3335.45" width="13.72" height="7.5"/><rect class="cls-1" x="189.6" y="3300.6" width="73.91" height="74.99"/><rect class="cls-2" x="244.33" y="3335.45" width="13.72" height="7.5"/><rect class="cls-2" x="219.72" y="3335.45" width="13.72" height="7.5"/><rect class="cls-2" x="195.2" y="3335.45" width="13.72" height="7.5"/><rect class="cls-1" x="263.5" y="3300.6" width="73.91" height="74.99"/><rect class="cls-2" x="318.23" y="3335.45" width="13.72" height="7.5"/><rect class="cls-2" x="293.63" y="3335.45" width="13.72" height="7.5"/><rect class="cls-2" x="269.1" y="3335.45" width="13.72" height="7.5"/><rect class="cls-1" x="337.41" y="3300.6" width="73.91" height="74.99"/><rect class="cls-2" x="392.14" y="3335.45" width="13.72" height="7.5"/><rect class="cls-2" x="367.54" y="3335.45" width="13.72" height="7.5"/><rect class="cls-2" x="343.01" y="3335.45" width="13.72" height="7.5"/><rect class="cls-1" x="41.78" y="3867.53" width="73.91" height="74.99"/><rect class="cls-2" x="96.51" y="3902.38" width="13.72" height="7.5"/><rect class="cls-2" x="71.9" y="3902.38" width="13.72" height="7.5"/><rect class="cls-2" x="47.38" y="3902.38" width="13.72" height="7.5"/><rect class="cls-1" x="115.69" y="3867.53" width="73.91" height="74.99"/><rect class="cls-2" x="170.42" y="3902.38" width="13.72" height="7.5"/><rect class="cls-2" x="145.81" y="3902.38" width="13.72" height="7.5"/><rect class="cls-2" x="121.29" y="3902.38" width="13.72" height="7.5"/><rect class="cls-1" x="189.6" y="3867.53" width="73.91" height="74.99"/><rect class="cls-2" x="244.33" y="3902.38" width="13.72" height="7.5"/><rect class="cls-2" x="219.72" y="3902.38" width="13.72" height="7.5"/><rect class="cls-2" x="195.2" y="3902.38" width="13.72" height="7.5"/><rect class="cls-1" x="263.5" y="3867.53" width="73.91" height="74.99"/><rect class="cls-2" x="318.23" y="3902.38" width="13.72" height="7.5"/><rect class="cls-2" x="293.63" y="3902.38" width="13.72" height="7.5"/><rect class="cls-2" x="269.1" y="3902.38" width="13.72" height="7.5"/><rect class="cls-1" x="337.41" y="3867.53" width="73.91" height="74.99"/><rect class="cls-2" x="392.14" y="3902.38" width="13.72" height="7.5"/><rect class="cls-2" x="367.54" y="3902.38" width="13.72" height="7.5"/><rect class="cls-2" x="343.01" y="3902.38" width="13.72" height="7.5"/><rect class="cls-1" x="41.78" y="3300.6" width="73.91" height="74.99"/><rect class="cls-2" x="96.51" y="3335.45" width="13.72" height="7.5"/><rect class="cls-2" x="71.9" y="3335.45" width="13.72" height="7.5"/><rect class="cls-2" x="47.38" y="3335.45" width="13.72" height="7.5"/><rect class="cls-1" x="115.69" y="3300.6" width="73.91" height="74.99"/><rect class="cls-2" x="170.42" y="3335.45" width="13.72" height="7.5"/><rect class="cls-2" x="145.81" y="3335.45" width="13.72" height="7.5"/><rect class="cls-2" x="121.29" y="3335.45" width="13.72" height="7.5"/><rect class="cls-1" x="189.6" y="3300.6" width="73.91" height="74.99"/><rect class="cls-2" x="244.33" y="3335.45" width="13.72" height="7.5"/><rect class="cls-2" x="219.72" y="3335.45" width="13.72" height="7.5"/><rect class="cls-2" x="195.2" y="3335.45" width="13.72" height="7.5"/><rect class="cls-1" x="263.5" y="3300.6" width="73.91" height="74.99"/><rect class="cls-2" x="318.23" y="3335.45" width="13.72" height="7.5"/><rect class="cls-2" x="293.63" y="3335.45" width="13.72" height="7.5"/><rect class="cls-2" x="269.1" y="3335.45" width="13.72" height="7.5"/><rect class="cls-1" x="337.41" y="3300.6" width="73.91" height="74.99"/><rect class="cls-2" x="392.14" y="3335.45" width="13.72" height="7.5"/><rect class="cls-2" x="367.54" y="3335.45" width="13.72" height="7.5"/><rect class="cls-2" x="343.01" y="3335.45" width="13.72" height="7.5"/><rect class="cls-1" x="41.78" y="4434.46" width="73.91" height="74.99"/><rect class="cls-2" x="96.51" y="4469.31" width="13.72" height="7.5"/><rect class="cls-2" x="71.9" y="4469.31" width="13.72" height="7.5"/><rect class="cls-2" x="47.38" y="4469.31" width="13.72" height="7.5"/><rect class="cls-1" x="115.69" y="4434.46" width="73.91" height="74.99"/><rect class="cls-2" x="170.42" y="4469.31" width="13.72" height="7.5"/><rect class="cls-2" x="145.81" y="4469.31" width="13.72" height="7.5"/><rect class="cls-2" x="121.29" y="4469.31" width="13.72" height="7.5"/><rect class="cls-1" x="189.6" y="4434.46" width="73.91" height="74.99"/><rect class="cls-2" x="244.33" y="4469.31" width="13.72" height="7.5"/><rect class="cls-2" x="219.72" y="4469.31" width="13.72" height="7.5"/><rect class="cls-2" x="195.2" y="4469.31" width="13.72" height="7.5"/><rect class="cls-1" x="263.5" y="4434.46" width="73.91" height="74.99"/><rect class="cls-2" x="318.23" y="4469.31" width="13.72" height="7.5"/><rect class="cls-2" x="293.63" y="4469.31" width="13.72" height="7.5"/><rect class="cls-2" x="269.1" y="4469.31" width="13.72" height="7.5"/><rect class="cls-1" x="337.41" y="4434.46" width="73.91" height="74.99"/><rect class="cls-2" x="392.14" y="4469.31" width="13.72" height="7.5"/><rect class="cls-2" x="367.54" y="4469.31" width="13.72" height="7.5"/><rect class="cls-2" x="343.01" y="4469.31" width="13.72" height="7.5"/></svg>