<svg id="Calque_1" data-name="Calque 1" xmlns="http://www.w3.org/2000/svg" viewBox="0 0 293.99 5512.32"><defs><style>.cls-1{fill:none;}.cls-2{fill:#1d1d1b;}</style></defs><title>FLECHEV.3</title><path d="M845.06,229.8,713.56,106.46c-2.7-4-7.09-4-9.79,0L572.28,229.8c-14.15,21.11-14.15,55.47,0,76.58s37.16,21.12,51.31,0l50.47-43.78V5564.11c0,28.47,15.53,51.65,34.6,51.65s34.6-23.18,34.6-51.65V262.6l50.47,43.78c14.15,21.12,37.17,21.12,51.31,0S859.19,250.91,845.06,229.8Z" transform="translate(-561.67 -103.44)"/><rect class="cls-1" x="35.91" y="377.13" width="74.06" height="74.99"/><rect class="cls-2" x="90.75" y="411.98" width="13.75" height="7.5"/><rect class="cls-2" x="66.09" y="411.98" width="13.75" height="7.5"/><rect class="cls-2" x="41.52" y="411.98" width="13.75" height="7.5"/><rect class="cls-1" x="109.96" y="377.13" width="74.06" height="74.99"/><rect class="cls-2" x="164.8" y="411.98" width="13.75" height="7.5"/><rect class="cls-2" x="140.15" y="411.98" width="13.75" height="7.5"/><rect class="cls-2" x="115.58" y="411.98" width="13.75" height="7.5"/><rect class="cls-1" x="184.02" y="377.13" width="74.06" height="74.99"/><rect class="cls-2" x="238.86" y="411.98" width="13.75" height="7.5"/><rect class="cls-2" x="214.21" y="411.98" width="13.75" height="7.5"/><rect class="cls-2" x="189.63" y="411.98" width="13.75" height="7.5"/><rect class="cls-1" x="35.91" y="926.16" width="74.06" height="74.99"/><rect class="cls-2" x="90.75" y="961" width="13.75" height="7.5"/><rect class="cls-2" x="66.09" y="961" width="13.75" height="7.5"/><rect class="cls-2" x="41.52" y="961" width="13.75" height="7.5"/><rect class="cls-1" x="109.96" y="926.16" width="74.06" height="74.99"/><rect class="cls-2" x="164.8" y="961" width="13.75" height="7.5"/><rect class="cls-2" x="140.15" y="961" width="13.75" height="7.5"/><rect class="cls-2" x="115.58" y="961" width="13.75" height="7.5"/><rect class="cls-1" x="184.02" y="926.16" width="74.06" height="74.99"/><rect class="cls-2" x="238.86" y="961" width="13.75" height="7.5"/><rect class="cls-2" x="214.21" y="961" width="13.75" height="7.5"/><rect class="cls-2" x="189.63" y="961" width="13.75" height="7.5"/><rect class="cls-1" x="35.91" y="1475.18" width="74.06" height="74.99"/><rect class="cls-2" x="90.75" y="1510.02" width="13.75" height="7.5"/><rect class="cls-2" x="66.09" y="1510.02" width="13.75" height="7.5"/><rect class="cls-2" x="41.52" y="1510.02" width="13.75" height="7.5"/><rect class="cls-1" x="109.96" y="1475.18" width="74.06" height="74.99"/><rect class="cls-2" x="164.8" y="1510.02" width="13.75" height="7.5"/><rect class="cls-2" x="140.15" y="1510.02" width="13.75" height="7.5"/><rect class="cls-2" x="115.58" y="1510.02" width="13.75" height="7.5"/><rect class="cls-1" x="184.02" y="1475.18" width="74.06" height="74.99"/><rect class="cls-2" x="238.86" y="1510.02" width="13.75" height="7.5"/><rect class="cls-2" x="214.21" y="1510.02" width="13.75" height="7.5"/><rect class="cls-2" x="189.63" y="1510.02" width="13.75" height="7.5"/><rect class="cls-1" x="35.91" y="926.16" width="74.06" height="74.99"/><rect class="cls-2" x="90.75" y="961" width="13.75" height="7.5"/><rect class="cls-2" x="66.09" y="961" width="13.75" height="7.5"/><rect class="cls-2" x="41.52" y="961" width="13.75" height="7.5"/><rect class="cls-1" x="109.96" y="926.16" width="74.06" height="74.99"/><rect class="cls-2" x="164.8" y="961" width="13.75" height="7.5"/><rect class="cls-2" x="140.15" y="961" width="13.75" height="7.5"/><rect class="cls-2" x="115.58" y="961" width="13.75" height="7.5"/><rect class="cls-1" x="184.02" y="926.16" width="74.06" height="74.99"/><rect class="cls-2" x="238.86" y="961" width="13.75" height="7.5"/><rect class="cls-2" x="214.21" y="961" width="13.75" height="7.5"/><rect class="cls-2" x="189.63" y="961" width="13.75" height="7.5"/><rect class="cls-1" x="35.91" y="2024.2" width="74.06" height="74.99"/><rect class="cls-2" x="90.75" y="2059.04" width="13.75" height="7.5"/><rect class="cls-2" x="66.09" y="2059.04" width="13.75" height="7.5"/><rect class="cls-2" x="41.52" y="2059.04" width="13.75" height="7.5"/><rect class="cls-1" x="109.96" y="2024.2" width="74.06" height="74.99"/><rect class="cls-2" x="164.8" y="2059.04" width="13.75" height="7.5"/><rect class="cls-2" x="140.15" y="2059.04" width="13.75" height="7.5"/><rect class="cls-2" x="115.58" y="2059.04" width="13.75" height="7.5"/><rect class="cls-1" x="184.02" y="2024.2" width="74.06" height="74.99"/><rect class="cls-2" x="238.86" y="2059.04" width="13.75" height="7.5"/><rect class="cls-2" x="214.21" y="2059.04" width="13.75" height="7.5"/><rect class="cls-2" x="189.63" y="2059.04" width="13.75" height="7.5"/><rect class="cls-1" x="35.91" y="2573.22" width="74.06" height="74.99"/><rect class="cls-2" x="90.75" y="2608.07" width="13.75" height="7.5"/><rect class="cls-2" x="66.09" y="2608.07" width="13.75" height="7.5"/><rect class="cls-2" x="41.52" y="2608.07" width="13.75" height="7.5"/><rect class="cls-1" x="109.96" y="2573.22" width="74.06" height="74.99"/><rect class="cls-2" x="164.8" y="2608.07" width="13.75" height="7.5"/><rect class="cls-2" x="140.15" y="2608.07" width="13.75" height="7.5"/><rect class="cls-2" x="115.58" y="2608.07" width="13.75" height="7.5"/><rect class="cls-1" x="184.02" y="2573.22" width="74.06" height="74.99"/><rect class="cls-2" x="238.86" y="2608.07" width="13.75" height="7.5"/><rect class="cls-2" x="214.21" y="2608.07" width="13.75" height="7.5"/><rect class="cls-2" x="189.63" y="2608.07" width="13.75" height="7.5"/><rect class="cls-1" x="35.91" y="3122.24" width="74.06" height="74.99"/><rect class="cls-2" x="90.75" y="3157.09" width="13.75" height="7.5"/><rect class="cls-2" x="66.09" y="3157.09" width="13.75" height="7.5"/><rect class="cls-2" x="41.52" y="3157.09" width="13.75" height="7.5"/><rect class="cls-1" x="109.96" y="3122.24" width="74.06" height="74.99"/><rect class="cls-2" x="164.8" y="3157.09" width="13.75" height="7.5"/><rect class="cls-2" x="140.15" y="3157.09" width="13.75" height="7.5"/><rect class="cls-2" x="115.58" y="3157.09" width="13.75" height="7.5"/><rect class="cls-1" x="184.02" y="3122.24" width="74.06" height="74.99"/><rect class="cls-2" x="238.86" y="3157.09" width="13.75" height="7.5"/><rect class="cls-2" x="214.21" y="3157.09" width="13.75" height="7.5"/><rect class="cls-2" x="189.63" y="3157.09" width="13.75" height="7.5"/><rect class="cls-1" x="35.91" y="3671.27" width="74.06" height="74.99"/><rect class="cls-2" x="90.75" y="3706.11" width="13.75" height="7.5"/><rect class="cls-2" x="66.09" y="3706.11" width="13.75" height="7.5"/><rect class="cls-2" x="41.52" y="3706.11" width="13.75" height="7.5"/><rect class="cls-1" x="109.96" y="3671.27" width="74.06" height="74.99"/><rect class="cls-2" x="164.8" y="3706.11" width="13.75" height="7.5"/><rect class="cls-2" x="140.15" y="3706.11" width="13.75" height="7.5"/><rect class="cls-2" x="115.58" y="3706.11" width="13.75" height="7.5"/><rect class="cls-1" x="184.02" y="3671.27" width="74.06" height="74.99"/><rect class="cls-2" x="238.86" y="3706.11" width="13.75" height="7.5"/><rect class="cls-2" x="214.21" y="3706.11" width="13.75" height="7.5"/><rect class="cls-2" x="189.63" y="3706.11" width="13.75" height="7.5"/><rect class="cls-1" x="35.91" y="3122.24" width="74.06" height="74.99"/><rect class="cls-2" x="90.75" y="3157.09" width="13.75" height="7.5"/><rect class="cls-2" x="66.09" y="3157.09" width="13.75" height="7.5"/><rect class="cls-2" x="41.52" y="3157.09" width="13.75" height="7.5"/><rect class="cls-1" x="109.96" y="3122.24" width="74.06" height="74.99"/><rect class="cls-2" x="164.8" y="3157.09" width="13.75" height="7.5"/><rect class="cls-2" x="140.15" y="3157.09" width="13.75" height="7.5"/><rect class="cls-2" x="115.58" y="3157.09" width="13.75" height="7.5"/><rect class="cls-1" x="184.02" y="3122.24" width="74.06" height="74.99"/><rect class="cls-2" x="238.86" y="3157.09" width="13.75" height="7.5"/><rect class="cls-2" x="214.21" y="3157.09" width="13.75" height="7.5"/><rect class="cls-2" x="189.63" y="3157.09" width="13.75" height="7.5"/><rect class="cls-1" x="35.91" y="4220.29" width="74.06" height="74.99"/><rect class="cls-2" x="90.75" y="4255.13" width="13.75" height="7.5"/><rect class="cls-2" x="66.09" y="4255.13" width="13.75" height="7.5"/><rect class="cls-2" x="41.52" y="4255.13" width="13.75" height="7.5"/><rect class="cls-1" x="109.96" y="4220.29" width="74.06" height="74.99"/><rect class="cls-2" x="164.8" y="4255.13" width="13.75" height="7.5"/><rect class="cls-2" x="140.15" y="4255.13" width="13.75" height="7.5"/><rect class="cls-2" x="115.58" y="4255.13" width="13.75" height="7.5"/><rect class="cls-1" x="184.02" y="4220.29" width="74.06" height="74.99"/><rect class="cls-2" x="238.86" y="4255.13" width="13.75" height="7.5"/><rect class="cls-2" x="214.21" y="4255.13" width="13.75" height="7.5"/><rect class="cls-2" x="189.63" y="4255.13" width="13.75" height="7.5"/><rect class="cls-1" x="35.91" y="4769.31" width="74.06" height="74.99"/><rect class="cls-2" x="90.75" y="4804.15" width="13.75" height="7.5"/><rect class="cls-2" x="66.09" y="4804.15" width="13.75" height="7.5"/><rect class="cls-2" x="41.52" y="4804.15" width="13.75" height="7.5"/><rect class="cls-1" x="109.96" y="4769.31" width="74.06" height="74.99"/><rect class="cls-2" x="164.8" y="4804.15" width="13.75" height="7.5"/><rect class="cls-2" x="140.15" y="4804.15" width="13.75" height="7.5"/><rect class="cls-2" x="115.58" y="4804.15" width="13.75" height="7.5"/><rect class="cls-1" x="184.02" y="4769.31" width="74.06" height="74.99"/><rect class="cls-2" x="238.86" y="4804.15" width="13.75" height="7.5"/><rect class="cls-2" x="214.21" y="4804.15" width="13.75" height="7.5"/><rect class="cls-2" x="189.63" y="4804.15" width="13.75" height="7.5"/><rect class="cls-1" x="35.91" y="5318.33" width="74.06" height="74.99"/><rect class="cls-2" x="90.75" y="5353.18" width="13.75" height="7.5"/><rect class="cls-2" x="66.09" y="5353.18" width="13.75" height="7.5"/><rect class="cls-2" x="41.52" y="5353.18" width="13.75" height="7.5"/><rect class="cls-1" x="109.96" y="5318.33" width="74.06" height="74.99"/><rect class="cls-2" x="164.8" y="5353.18" width="13.75" height="7.5"/><rect class="cls-2" x="140.15" y="5353.18" width="13.75" height="7.5"/><rect class="cls-2" x="115.58" y="5353.18" width="13.75" height="7.5"/><rect class="cls-1" x="184.02" y="5318.33" width="74.06" height="74.99"/><rect class="cls-2" x="238.86" y="5353.18" width="13.75" height="7.5"/><rect class="cls-2" x="214.21" y="5353.18" width="13.75" height="7.5"/><rect class="cls-2" x="189.63" y="5353.18" width="13.75" height="7.5"/><rect class="cls-1" x="35.91" y="5318.33" width="74.06" height="74.99"/><rect class="cls-2" x="90.75" y="5353.18" width="13.75" height="7.5"/><rect class="cls-2" x="66.09" y="5353.18" width="13.75" height="7.5"/><rect class="cls-2" x="41.52" y="5353.18" width="13.75" height="7.5"/><rect class="cls-1" x="109.96" y="5318.33" width="74.06" height="74.99"/><rect class="cls-2" x="164.8" y="5353.18" width="13.75" height="7.5"/><rect class="cls-2" x="140.15" y="5353.18" width="13.75" height="7.5"/><rect class="cls-2" x="115.58" y="5353.18" width="13.75" height="7.5"/><rect class="cls-1" x="184.02" y="5318.33" width="74.06" height="74.99"/><rect class="cls-2" x="238.86" y="5353.18" width="13.75" height="7.5"/><rect class="cls-2" x="214.21" y="5353.18" width="13.75" height="7.5"/><rect class="cls-2" x="189.63" y="5353.18" width="13.75" height="7.5"/></svg>