<svg id="Calque_1" data-name="Calque 1" xmlns="http://www.w3.org/2000/svg" viewBox="0 0 438.79 5585.25"><defs><style>.cls-1{fill:none;}.cls-2{fill:#1d1d1b;}</style></defs><title>FLECHEV.2</title><path d="M919.18,229.8,722.91,33.53a10.34,10.34,0,0,0-14.6,0L512,229.8a54.15,54.15,0,0,0,76.59,76.58L664,231.06v5333a51.65,51.65,0,0,0,103.3,0v-5333l75.32,75.32a54.16,54.16,0,0,0,76.61-76.58Z" transform="translate(-496.21 -30.51)"/><rect class="cls-1" x="40.46" y="450.06" width="71.57" height="74.99"/><rect class="cls-2" x="93.46" y="484.9" width="13.29" height="7.5"/><rect class="cls-2" x="69.63" y="484.9" width="13.29" height="7.5"/><rect class="cls-2" x="45.88" y="484.9" width="13.29" height="7.5"/><rect class="cls-1" x="112.03" y="450.06" width="71.57" height="74.99"/><rect class="cls-2" x="165.03" y="484.9" width="13.29" height="7.5"/><rect class="cls-2" x="141.21" y="484.9" width="13.29" height="7.5"/><rect class="cls-2" x="117.46" y="484.9" width="13.29" height="7.5"/><rect class="cls-1" x="183.61" y="450.06" width="71.57" height="74.99"/><rect class="cls-2" x="236.61" y="484.9" width="13.29" height="7.5"/><rect class="cls-2" x="212.78" y="484.9" width="13.29" height="7.5"/><rect class="cls-2" x="189.03" y="484.9" width="13.29" height="7.5"/><rect class="cls-1" x="255.18" y="450.06" width="71.57" height="74.99"/><rect class="cls-2" x="308.18" y="484.9" width="13.29" height="7.5"/><rect class="cls-2" x="284.35" y="484.9" width="13.29" height="7.5"/><rect class="cls-2" x="260.6" y="484.9" width="13.29" height="7.5"/><rect class="cls-1" x="326.76" y="450.06" width="71.57" height="74.99"/><rect class="cls-2" x="379.76" y="484.9" width="13.29" height="7.5"/><rect class="cls-2" x="355.93" y="484.9" width="13.29" height="7.5"/><rect class="cls-2" x="332.18" y="484.9" width="13.29" height="7.5"/><rect class="cls-1" x="40.46" y="999.08" width="71.57" height="74.99"/><rect class="cls-2" x="93.46" y="1033.92" width="13.29" height="7.5"/><rect class="cls-2" x="69.63" y="1033.92" width="13.29" height="7.5"/><rect class="cls-2" x="45.88" y="1033.92" width="13.29" height="7.5"/><rect class="cls-1" x="112.03" y="999.08" width="71.57" height="74.99"/><rect class="cls-2" x="165.03" y="1033.92" width="13.29" height="7.5"/><rect class="cls-2" x="141.21" y="1033.92" width="13.29" height="7.5"/><rect class="cls-2" x="117.46" y="1033.92" width="13.29" height="7.5"/><rect class="cls-1" x="183.61" y="999.08" width="71.57" height="74.99"/><rect class="cls-2" x="236.61" y="1033.92" width="13.29" height="7.5"/><rect class="cls-2" x="212.78" y="1033.92" width="13.29" height="7.5"/><rect class="cls-2" x="189.03" y="1033.92" width="13.29" height="7.5"/><rect class="cls-1" x="255.18" y="999.08" width="71.57" height="74.99"/><rect class="cls-2" x="308.18" y="1033.92" width="13.29" height="7.5"/><rect class="cls-2" x="284.35" y="1033.92" width="13.29" height="7.5"/><rect class="cls-2" x="260.6" y="1033.92" width="13.29" height="7.5"/><rect class="cls-1" x="326.76" y="999.08" width="71.57" height="74.99"/><rect class="cls-2" x="379.76" y="1033.92" width="13.29" height="7.5"/><rect class="cls-2" x="355.93" y="1033.92" width="13.29" height="7.5"/><rect class="cls-2" x="332.18" y="1033.92" width="13.29" height="7.5"/><rect class="cls-1" x="40.46" y="1548.1" width="71.57" height="74.99"/><rect class="cls-2" x="93.46" y="1582.95" width="13.29" height="7.5"/><rect class="cls-2" x="69.63" y="1582.95" width="13.29" height="7.5"/><rect class="cls-2" x="45.88" y="1582.95" width="13.29" height="7.5"/><rect class="cls-1" x="112.03" y="1548.1" width="71.57" height="74.99"/><rect class="cls-2" x="165.03" y="1582.95" width="13.29" height="7.5"/><rect class="cls-2" x="141.21" y="1582.95" width="13.29" height="7.5"/><rect class="cls-2" x="117.46" y="1582.95" width="13.29" height="7.5"/><rect class="cls-1" x="183.61" y="1548.1" width="71.57" height="74.99"/><rect class="cls-2" x="236.61" y="1582.95" width="13.29" height="7.5"/><rect class="cls-2" x="212.78" y="1582.95" width="13.29" height="7.5"/><rect class="cls-2" x="189.03" y="1582.95" width="13.29" height="7.5"/><rect class="cls-1" x="255.18" y="1548.1" width="71.57" height="74.99"/><rect class="cls-2" x="308.18" y="1582.95" width="13.29" height="7.5"/><rect class="cls-2" x="284.35" y="1582.95" width="13.29" height="7.5"/><rect class="cls-2" x="260.6" y="1582.95" width="13.29" height="7.5"/><rect class="cls-1" x="326.76" y="1548.1" width="71.57" height="74.99"/><rect class="cls-2" x="379.76" y="1582.95" width="13.29" height="7.5"/><rect class="cls-2" x="355.93" y="1582.95" width="13.29" height="7.5"/><rect class="cls-2" x="332.18" y="1582.95" width="13.29" height="7.5"/><rect class="cls-1" x="40.46" y="999.08" width="71.57" height="74.99"/><rect class="cls-2" x="93.46" y="1033.92" width="13.29" height="7.5"/><rect class="cls-2" x="69.63" y="1033.92" width="13.29" height="7.5"/><rect class="cls-2" x="45.88" y="1033.92" width="13.29" height="7.5"/><rect class="cls-1" x="112.03" y="999.08" width="71.57" height="74.99"/><rect class="cls-2" x="165.03" y="1033.92" width="13.29" height="7.5"/><rect class="cls-2" x="141.21" y="1033.92" width="13.29" height="7.5"/><rect class="cls-2" x="117.46" y="1033.92" width="13.29" height="7.5"/><rect class="cls-1" x="183.61" y="999.08" width="71.57" height="74.99"/><rect class="cls-2" x="236.61" y="1033.92" width="13.29" height="7.5"/><rect class="cls-2" x="212.78" y="1033.92" width="13.29" height="7.5"/><rect class="cls-2" x="189.03" y="1033.92" width="13.29" height="7.5"/><rect class="cls-1" x="255.18" y="999.08" width="71.57" height="74.99"/><rect class="cls-2" x="308.18" y="1033.92" width="13.29" height="7.5"/><rect class="cls-2" x="284.35" y="1033.92" width="13.29" height="7.5"/><rect class="cls-2" x="260.6" y="1033.92" width="13.29" height="7.5"/><rect class="cls-1" x="326.76" y="999.08" width="71.57" height="74.99"/><rect class="cls-2" x="379.76" y="1033.92" width="13.29" height="7.5"/><rect class="cls-2" x="355.93" y="1033.92" width="13.29" height="7.5"/><rect class="cls-2" x="332.18" y="1033.92" width="13.29" height="7.5"/><rect class="cls-1" x="40.46" y="2097.12" width="71.57" height="74.99"/><rect class="cls-2" x="93.46" y="2131.97" width="13.29" height="7.5"/><rect class="cls-2" x="69.63" y="2131.97" width="13.29" height="7.5"/><rect class="cls-2" x="45.88" y="2131.97" width="13.29" height="7.5"/><rect class="cls-1" x="112.03" y="2097.12" width="71.57" height="74.99"/><rect class="cls-2" x="165.03" y="2131.97" width="13.29" height="7.5"/><rect class="cls-2" x="141.21" y="2131.97" width="13.29" height="7.5"/><rect class="cls-2" x="117.46" y="2131.97" width="13.29" height="7.5"/><rect class="cls-1" x="183.61" y="2097.12" width="71.57" height="74.99"/><rect class="cls-2" x="236.61" y="2131.97" width="13.29" height="7.5"/><rect class="cls-2" x="212.78" y="2131.97" width="13.29" height="7.5"/><rect class="cls-2" x="189.03" y="2131.97" width="13.29" height="7.5"/><rect class="cls-1" x="255.18" y="2097.12" width="71.57" height="74.99"/><rect class="cls-2" x="308.18" y="2131.97" width="13.29" height="7.5"/><rect class="cls-2" x="284.35" y="2131.97" width="13.29" height="7.5"/><rect class="cls-2" x="260.6" y="2131.97" width="13.29" height="7.5"/><rect class="cls-1" x="326.76" y="2097.12" width="71.57" height="74.99"/><rect class="cls-2" x="379.76" y="2131.97" width="13.29" height="7.5"/><rect class="cls-2" x="355.93" y="2131.97" width="13.29" height="7.5"/><rect class="cls-2" x="332.18" y="2131.97" width="13.29" height="7.5"/><rect class="cls-1" x="40.46" y="2646.15" width="71.57" height="74.99"/><rect class="cls-2" x="93.46" y="2680.99" width="13.29" height="7.5"/><rect class="cls-2" x="69.63" y="2680.99" width="13.29" height="7.5"/><rect class="cls-2" x="45.88" y="2680.99" width="13.29" height="7.5"/><rect class="cls-1" x="112.03" y="2646.15" width="71.57" height="74.99"/><rect class="cls-2" x="165.03" y="2680.99" width="13.29" height="7.5"/><rect class="cls-2" x="141.21" y="2680.99" width="13.29" height="7.5"/><rect class="cls-2" x="117.46" y="2680.99" width="13.29" height="7.5"/><rect class="cls-1" x="183.61" y="2646.15" width="71.57" height="74.99"/><rect class="cls-2" x="236.61" y="2680.99" width="13.29" height="7.5"/><rect class="cls-2" x="212.78" y="2680.99" width="13.29" height="7.5"/><rect class="cls-2" x="189.03" y="2680.99" width="13.29" height="7.5"/><rect class="cls-1" x="255.18" y="2646.15" width="71.57" height="74.99"/><rect class="cls-2" x="308.18" y="2680.99" width="13.29" height="7.5"/><rect class="cls-2" x="284.35" y="2680.99" width="13.29" height="7.5"/><rect class="cls-2" x="260.6" y="2680.99" width="13.29" height="7.5"/><rect class="cls-1" x="326.76" y="2646.15" width="71.57" height="74.99"/><rect class="cls-2" x="379.76" y="2680.99" width="13.29" height="7.5"/><rect class="cls-2" x="355.93" y="2680.99" width="13.29" height="7.5"/><rect class="cls-2" x="332.18" y="2680.99" width="13.29" height="7.5"/><rect class="cls-1" x="40.46" y="3195.17" width="71.57" height="74.99"/><rect class="cls-2" x="93.46" y="3230.01" width="13.29" height="7.5"/><rect class="cls-2" x="69.63" y="3230.01" width="13.29" height="7.5"/><rect class="cls-2" x="45.88" y="3230.01" width="13.29" height="7.5"/><rect class="cls-1" x="112.03" y="3195.17" width="71.57" height="74.99"/><rect class="cls-2" x="165.03" y="3230.01" width="13.29" height="7.5"/><rect class="cls-2" x="141.21" y="3230.01" width="13.29" height="7.5"/><rect class="cls-2" x="117.46" y="3230.01" width="13.29" height="7.5"/><rect class="cls-1" x="183.61" y="3195.17" width="71.57" height="74.99"/><rect class="cls-2" x="236.61" y="3230.01" width="13.29" height="7.5"/><rect class="cls-2" x="212.78" y="3230.01" width="13.29" height="7.5"/><rect class="cls-2" x="189.03" y="3230.01" width="13.29" height="7.5"/><rect class="cls-1" x="255.18" y="3195.17" width="71.57" height="74.99"/><rect class="cls-2" x="308.18" y="3230.01" width="13.29" height="7.5"/><rect class="cls-2" x="284.35" y="3230.01" width="13.29" height="7.5"/><rect class="cls-2" x="260.6" y="3230.01" width="13.29" height="7.5"/><rect class="cls-1" x="326.76" y="3195.17" width="71.57" height="74.99"/><rect class="cls-2" x="379.76" y="3230.01" width="13.29" height="7.5"/><rect class="cls-2" x="355.93" y="3230.01" width="13.29" height="7.5"/><rect class="cls-2" x="332.18" y="3230.01" width="13.29" height="7.5"/><rect class="cls-1" x="40.46" y="3744.19" width="71.57" height="74.99"/><rect class="cls-2" x="93.46" y="3779.03" width="13.29" height="7.5"/><rect class="cls-2" x="69.63" y="3779.03" width="13.29" height="7.5"/><rect class="cls-2" x="45.88" y="3779.03" width="13.29" height="7.5"/><rect class="cls-1" x="112.03" y="3744.19" width="71.57" height="74.99"/><rect class="cls-2" x="165.03" y="3779.03" width="13.29" height="7.5"/><rect class="cls-2" x="141.21" y="3779.03" width="13.29" height="7.5"/><rect class="cls-2" x="117.46" y="3779.03" width="13.29" height="7.5"/><rect class="cls-1" x="183.61" y="3744.19" width="71.57" height="74.99"/><rect class="cls-2" x="236.61" y="3779.03" width="13.29" height="7.5"/><rect class="cls-2" x="212.78" y="3779.03" width="13.29" height="7.5"/><rect class="cls-2" x="189.03" y="3779.03" width="13.29" height="7.5"/><rect class="cls-1" x="255.18" y="3744.19" width="71.57" height="74.99"/><rect class="cls-2" x="308.18" y="3779.03" width="13.29" height="7.5"/><rect class="cls-2" x="284.35" y="3779.03" width="13.29" height="7.5"/><rect class="cls-2" x="260.6" y="3779.03" width="13.29" height="7.5"/><rect class="cls-1" x="326.76" y="3744.19" width="71.57" height="74.99"/><rect class="cls-2" x="379.76" y="3779.03" width="13.29" height="7.5"/><rect class="cls-2" x="355.93" y="3779.03" width="13.29" height="7.5"/><rect class="cls-2" x="332.18" y="3779.03" width="13.29" height="7.5"/><rect class="cls-1" x="40.46" y="3195.17" width="71.57" height="74.99"/><rect class="cls-2" x="93.46" y="3230.01" width="13.29" height="7.5"/><rect class="cls-2" x="69.63" y="3230.01" width="13.29" height="7.5"/><rect class="cls-2" x="45.88" y="3230.01" width="13.29" height="7.5"/><rect class="cls-1" x="112.03" y="3195.17" width="71.57" height="74.99"/><rect class="cls-2" x="165.03" y="3230.01" width="13.29" height="7.5"/><rect class="cls-2" x="141.21" y="3230.01" width="13.29" height="7.5"/><rect class="cls-2" x="117.46" y="3230.01" width="13.29" height="7.5"/><rect class="cls-1" x="183.61" y="3195.17" width="71.57" height="74.99"/><rect class="cls-2" x="236.61" y="3230.01" width="13.29" height="7.5"/><rect class="cls-2" x="212.78" y="3230.01" width="13.29" height="7.5"/><rect class="cls-2" x="189.03" y="3230.01" width="13.29" height="7.5"/><rect class="cls-1" x="255.18" y="3195.17" width="71.57" height="74.99"/><rect class="cls-2" x="308.18" y="3230.01" width="13.29" height="7.5"/><rect class="cls-2" x="284.35" y="3230.01" width="13.29" height="7.5"/><rect class="cls-2" x="260.6" y="3230.01" width="13.29" height="7.5"/><rect class="cls-1" x="326.76" y="3195.17" width="71.57" height="74.99"/><rect class="cls-2" x="379.76" y="3230.01" width="13.29" height="7.5"/><rect class="cls-2" x="355.93" y="3230.01" width="13.29" height="7.5"/><rect class="cls-2" x="332.18" y="3230.01" width="13.29" height="7.5"/><rect class="cls-1" x="40.46" y="4293.21" width="71.57" height="74.99"/><rect class="cls-2" x="93.46" y="4328.06" width="13.29" height="7.5"/><rect class="cls-2" x="69.63" y="4328.06" width="13.29" height="7.5"/><rect class="cls-2" x="45.88" y="4328.06" width="13.29" height="7.5"/><rect class="cls-1" x="112.03" y="4293.21" width="71.57" height="74.99"/><rect class="cls-2" x="165.03" y="4328.06" width="13.29" height="7.5"/><rect class="cls-2" x="141.21" y="4328.06" width="13.29" height="7.5"/><rect class="cls-2" x="117.46" y="4328.06" width="13.29" height="7.5"/><rect class="cls-1" x="183.61" y="4293.21" width="71.57" height="74.99"/><rect class="cls-2" x="236.61" y="4328.06" width="13.29" height="7.5"/><rect class="cls-2" x="212.78" y="4328.06" width="13.29" height="7.5"/><rect class="cls-2" x="189.03" y="4328.06" width="13.29" height="7.5"/><rect class="cls-1" x="255.18" y="4293.21" width="71.57" height="74.99"/><rect class="cls-2" x="308.18" y="4328.06" width="13.29" height="7.5"/><rect class="cls-2" x="284.35" y="4328.06" width="13.29" height="7.5"/><rect class="cls-2" x="260.6" y="4328.06" width="13.29" height="7.5"/><rect class="cls-1" x="326.76" y="4293.21" width="71.57" height="74.99"/><rect class="cls-2" x="379.76" y="4328.06" width="13.29" height="7.5"/><rect class="cls-2" x="355.93" y="4328.06" width="13.29" height="7.5"/><rect class="cls-2" x="332.18" y="4328.06" width="13.29" height="7.5"/><rect class="cls-1" x="40.46" y="4842.23" width="71.57" height="74.99"/><rect class="cls-2" x="93.46" y="4877.08" width="13.29" height="7.5"/><rect class="cls-2" x="69.63" y="4877.08" width="13.29" height="7.5"/><rect class="cls-2" x="45.88" y="4877.08" width="13.29" height="7.5"/><rect class="cls-1" x="112.03" y="4842.23" width="71.57" height="74.99"/><rect class="cls-2" x="165.03" y="4877.08" width="13.29" height="7.5"/><rect class="cls-2" x="141.21" y="4877.08" width="13.29" height="7.5"/><rect class="cls-2" x="117.46" y="4877.08" width="13.29" height="7.5"/><rect class="cls-1" x="183.61" y="4842.23" width="71.57" height="74.99"/><rect class="cls-2" x="236.61" y="4877.08" width="13.29" height="7.5"/><rect class="cls-2" x="212.78" y="4877.08" width="13.29" height="7.5"/><rect class="cls-2" x="189.03" y="4877.08" width="13.29" height="7.5"/><rect class="cls-1" x="255.18" y="4842.23" width="71.57" height="74.99"/><rect class="cls-2" x="308.18" y="4877.08" width="13.29" height="7.5"/><rect class="cls-2" x="284.35" y="4877.08" width="13.29" height="7.5"/><rect class="cls-2" x="260.6" y="4877.08" width="13.29" height="7.5"/><rect class="cls-1" x="326.76" y="4842.23" width="71.57" height="74.99"/><rect class="cls-2" x="379.76" y="4877.08" width="13.29" height="7.5"/><rect class="cls-2" x="355.93" y="4877.08" width="13.29" height="7.5"/><rect class="cls-2" x="332.18" y="4877.08" width="13.29" height="7.5"/><rect class="cls-1" x="40.46" y="5391.26" width="71.57" height="74.99"/><rect class="cls-2" x="93.46" y="5426.1" width="13.29" height="7.5"/><rect class="cls-2" x="69.63" y="5426.1" width="13.29" height="7.5"/><rect class="cls-2" x="45.88" y="5426.1" width="13.29" height="7.5"/><rect class="cls-1" x="112.03" y="5391.26" width="71.57" height="74.99"/><rect class="cls-2" x="165.03" y="5426.1" width="13.29" height="7.5"/><rect class="cls-2" x="141.21" y="5426.1" width="13.29" height="7.5"/><rect class="cls-2" x="117.46" y="5426.1" width="13.29" height="7.5"/><rect class="cls-1" x="183.61" y="5391.26" width="71.57" height="74.99"/><rect class="cls-2" x="236.61" y="5426.1" width="13.29" height="7.5"/><rect class="cls-2" x="212.78" y="5426.1" width="13.29" height="7.5"/><rect class="cls-2" x="189.03" y="5426.1" width="13.29" height="7.5"/><rect class="cls-1" x="255.18" y="5391.26" width="71.57" height="74.99"/><rect class="cls-2" x="308.18" y="5426.1" width="13.29" height="7.5"/><rect class="cls-2" x="284.35" y="5426.1" width="13.29" height="7.5"/><rect class="cls-2" x="260.6" y="5426.1" width="13.29" height="7.5"/><rect class="cls-1" x="326.76" y="5391.26" width="71.57" height="74.99"/><rect class="cls-2" x="379.76" y="5426.1" width="13.29" height="7.5"/><rect class="cls-2" x="355.93" y="5426.1" width="13.29" height="7.5"/><rect class="cls-2" x="332.18" y="5426.1" width="13.29" height="7.5"/><rect class="cls-1" x="40.46" y="5391.26" width="71.57" height="74.99"/><rect class="cls-2" x="93.46" y="5426.1" width="13.29" height="7.5"/><rect class="cls-2" x="69.63" y="5426.1" width="13.29" height="7.5"/><rect class="cls-2" x="45.88" y="5426.1" width="13.29" height="7.5"/><rect class="cls-1" x="112.03" y="5391.26" width="71.57" height="74.99"/><rect class="cls-2" x="165.03" y="5426.1" width="13.29" height="7.5"/><rect class="cls-2" x="141.21" y="5426.1" width="13.29" height="7.5"/><rect class="cls-2" x="117.46" y="5426.1" width="13.29" height="7.5"/><rect class="cls-1" x="183.61" y="5391.26" width="71.57" height="74.99"/><rect class="cls-2" x="236.61" y="5426.1" width="13.29" height="7.5"/><rect class="cls-2" x="212.78" y="5426.1" width="13.29" height="7.5"/><rect class="cls-2" x="189.03" y="5426.1" width="13.29" height="7.5"/><rect class="cls-1" x="255.18" y="5391.26" width="71.57" height="74.99"/><rect class="cls-2" x="308.18" y="5426.1" width="13.29" height="7.5"/><rect class="cls-2" x="284.35" y="5426.1" width="13.29" height="7.5"/><rect class="cls-2" x="260.6" y="5426.1" width="13.29" height="7.5"/><rect class="cls-1" x="326.76" y="5391.26" width="71.57" height="74.99"/><rect class="cls-2" x="379.76" y="5426.1" width="13.29" height="7.5"/><rect class="cls-2" x="355.93" y="5426.1" width="13.29" height="7.5"/><rect class="cls-2" x="332.18" y="5426.1" width="13.29" height="7.5"/></svg>